<mxfile host="app.diagrams.net" modified="2020-09-17T07:01:12.843Z" agent="5.0 (Macintosh; Intel Mac OS X 10_13_6) AppleWebKit/537.36 (KHTML, like Gecko) Chrome/85.0.4183.102 Safari/537.36" etag="-ABwTuZ6fSR0oqj0F0aE" version="13.7.2" type="github">
  <diagram id="pji6zDkys0XvNhu6iA6W" name="Page-1">
    <mxGraphModel dx="946" dy="614" grid="1" gridSize="10" guides="1" tooltips="1" connect="1" arrows="1" fold="1" page="1" pageScale="1" pageWidth="827" pageHeight="1169" math="0" shadow="0">
      <root>
        <mxCell id="0" />
        <mxCell id="1" parent="0" />
        <mxCell id="tSy5s7O_aiBnIDmspPRC-12" style="rounded=0;orthogonalLoop=1;jettySize=auto;html=1;exitX=0.5;exitY=1;exitDx=0;exitDy=0;fontFamily=Comic Sans MS;entryX=0.5;entryY=0;entryDx=0;entryDy=0;endArrow=none;endFill=0;" edge="1" parent="1" source="tSy5s7O_aiBnIDmspPRC-1" target="tSy5s7O_aiBnIDmspPRC-4">
          <mxGeometry relative="1" as="geometry" />
        </mxCell>
        <mxCell id="tSy5s7O_aiBnIDmspPRC-13" style="edgeStyle=none;rounded=0;orthogonalLoop=1;jettySize=auto;html=1;exitX=0.5;exitY=1;exitDx=0;exitDy=0;entryX=0.5;entryY=0;entryDx=0;entryDy=0;fontFamily=Comic Sans MS;endArrow=none;endFill=0;" edge="1" parent="1" source="tSy5s7O_aiBnIDmspPRC-1" target="tSy5s7O_aiBnIDmspPRC-5">
          <mxGeometry relative="1" as="geometry" />
        </mxCell>
        <mxCell id="tSy5s7O_aiBnIDmspPRC-1" value="A(8)" style="ellipse;whiteSpace=wrap;html=1;aspect=fixed;gradientDirection=south;fontFamily=Comic Sans MS;dashed=1;dashPattern=1 1;shadow=0;sketch=1;fillColor=#cce5ff;strokeColor=#36393d;" vertex="1" parent="1">
          <mxGeometry x="360" y="180" width="60" height="60" as="geometry" />
        </mxCell>
        <mxCell id="tSy5s7O_aiBnIDmspPRC-14" style="edgeStyle=none;rounded=0;orthogonalLoop=1;jettySize=auto;html=1;exitX=0.5;exitY=1;exitDx=0;exitDy=0;entryX=0.5;entryY=0;entryDx=0;entryDy=0;fontFamily=Comic Sans MS;endArrow=none;endFill=0;" edge="1" parent="1" source="tSy5s7O_aiBnIDmspPRC-4" target="tSy5s7O_aiBnIDmspPRC-6">
          <mxGeometry relative="1" as="geometry" />
        </mxCell>
        <mxCell id="tSy5s7O_aiBnIDmspPRC-15" style="edgeStyle=none;rounded=0;orthogonalLoop=1;jettySize=auto;html=1;exitX=0.5;exitY=1;exitDx=0;exitDy=0;entryX=0.5;entryY=0;entryDx=0;entryDy=0;fontFamily=Comic Sans MS;endArrow=none;endFill=0;" edge="1" parent="1" source="tSy5s7O_aiBnIDmspPRC-4" target="tSy5s7O_aiBnIDmspPRC-7">
          <mxGeometry relative="1" as="geometry" />
        </mxCell>
        <mxCell id="tSy5s7O_aiBnIDmspPRC-16" style="edgeStyle=none;rounded=0;orthogonalLoop=1;jettySize=auto;html=1;exitX=0.5;exitY=1;exitDx=0;exitDy=0;entryX=0.5;entryY=0;entryDx=0;entryDy=0;fontFamily=Comic Sans MS;endArrow=none;endFill=0;" edge="1" parent="1" source="tSy5s7O_aiBnIDmspPRC-4" target="tSy5s7O_aiBnIDmspPRC-8">
          <mxGeometry relative="1" as="geometry" />
        </mxCell>
        <mxCell id="tSy5s7O_aiBnIDmspPRC-4" value="B(11)" style="ellipse;whiteSpace=wrap;html=1;aspect=fixed;gradientDirection=south;fontFamily=Comic Sans MS;dashed=1;dashPattern=1 1;shadow=0;sketch=1;fillColor=#ffff88;strokeColor=#36393d;" vertex="1" parent="1">
          <mxGeometry x="260" y="283" width="60" height="60" as="geometry" />
        </mxCell>
        <mxCell id="tSy5s7O_aiBnIDmspPRC-17" style="edgeStyle=none;rounded=0;orthogonalLoop=1;jettySize=auto;html=1;exitX=0.5;exitY=1;exitDx=0;exitDy=0;fontFamily=Comic Sans MS;entryX=0.5;entryY=0;entryDx=0;entryDy=0;endArrow=none;endFill=0;" edge="1" parent="1" source="tSy5s7O_aiBnIDmspPRC-5" target="tSy5s7O_aiBnIDmspPRC-9">
          <mxGeometry relative="1" as="geometry" />
        </mxCell>
        <mxCell id="tSy5s7O_aiBnIDmspPRC-18" style="edgeStyle=none;rounded=0;orthogonalLoop=1;jettySize=auto;html=1;exitX=0.5;exitY=1;exitDx=0;exitDy=0;entryX=0.5;entryY=0;entryDx=0;entryDy=0;fontFamily=Comic Sans MS;endArrow=none;endFill=0;" edge="1" parent="1" source="tSy5s7O_aiBnIDmspPRC-5" target="tSy5s7O_aiBnIDmspPRC-10">
          <mxGeometry relative="1" as="geometry" />
        </mxCell>
        <mxCell id="tSy5s7O_aiBnIDmspPRC-5" value="C(7)" style="ellipse;whiteSpace=wrap;html=1;aspect=fixed;gradientDirection=south;fontFamily=Comic Sans MS;dashed=1;dashPattern=1 1;shadow=0;sketch=1;fillColor=#ffff88;strokeColor=#36393d;" vertex="1" parent="1">
          <mxGeometry x="440" y="283" width="60" height="60" as="geometry" />
        </mxCell>
        <mxCell id="tSy5s7O_aiBnIDmspPRC-6" value="D(3)" style="ellipse;whiteSpace=wrap;html=1;aspect=fixed;gradientDirection=south;fontFamily=Comic Sans MS;dashed=1;dashPattern=1 1;shadow=0;sketch=1;fillColor=#cdeb8b;strokeColor=#36393d;" vertex="1" parent="1">
          <mxGeometry x="180" y="398" width="60" height="60" as="geometry" />
        </mxCell>
        <mxCell id="tSy5s7O_aiBnIDmspPRC-7" value="E(6)" style="ellipse;whiteSpace=wrap;html=1;aspect=fixed;gradientDirection=south;fontFamily=Comic Sans MS;dashed=1;dashPattern=1 1;shadow=0;sketch=1;fillColor=#cdeb8b;strokeColor=#36393d;" vertex="1" parent="1">
          <mxGeometry x="260" y="398" width="60" height="60" as="geometry" />
        </mxCell>
        <mxCell id="tSy5s7O_aiBnIDmspPRC-8" value="F(2)" style="ellipse;whiteSpace=wrap;html=1;aspect=fixed;gradientDirection=south;fontFamily=Comic Sans MS;dashed=1;dashPattern=1 1;shadow=0;sketch=1;fillColor=#cdeb8b;strokeColor=#36393d;" vertex="1" parent="1">
          <mxGeometry x="340" y="398" width="60" height="60" as="geometry" />
        </mxCell>
        <mxCell id="tSy5s7O_aiBnIDmspPRC-9" value="G(5)" style="ellipse;whiteSpace=wrap;html=1;aspect=fixed;gradientDirection=south;fontFamily=Comic Sans MS;dashed=1;dashPattern=1 1;shadow=0;sketch=1;fillColor=#ffcccc;strokeColor=#36393d;" vertex="1" parent="1">
          <mxGeometry x="420" y="398" width="60" height="60" as="geometry" />
        </mxCell>
        <mxCell id="tSy5s7O_aiBnIDmspPRC-10" value="H(9)" style="ellipse;whiteSpace=wrap;html=1;aspect=fixed;gradientDirection=south;fontFamily=Comic Sans MS;dashed=1;dashPattern=1 1;shadow=0;sketch=1;fillColor=#ffcccc;strokeColor=#36393d;" vertex="1" parent="1">
          <mxGeometry x="500" y="398" width="60" height="60" as="geometry" />
        </mxCell>
      </root>
    </mxGraphModel>
  </diagram>
</mxfile>
